<?xml version="1.0" encoding="UTF-8" standalone="no"?>
<svg
   version="1.1"
   width="24"
   height="24"
   viewBox="0 0 24 24"
   id="svg4"
   sodipodi:docname="check-network-outline.svg"
   inkscape:version="1.1 (c68e22c387, 2021-05-23)"
   xmlns:inkscape="http://www.inkscape.org/namespaces/inkscape"
   xmlns:sodipodi="http://sodipodi.sourceforge.net/DTD/sodipodi-0.dtd"
   xmlns="http://www.w3.org/2000/svg"
   xmlns:svg="http://www.w3.org/2000/svg">
  <defs
     id="defs8" />
  <sodipodi:namedview
     id="namedview6"
     pagecolor="#505050"
     bordercolor="#eeeeee"
     borderopacity="1"
     inkscape:pageshadow="0"
     inkscape:pageopacity="0"
     inkscape:pagecheckerboard="0"
     showgrid="false"
     inkscape:zoom="33.166667"
     inkscape:cx="12.015075"
     inkscape:cy="12"
     inkscape:window-width="1920"
     inkscape:window-height="1000"
     inkscape:window-x="-11"
     inkscape:window-y="-11"
     inkscape:window-maximized="1"
     inkscape:current-layer="svg4" />
  <path
     d="M15,20A1,1 0 0,0 14,19H13V17H17A2,2 0 0,0 19,15V5A2,2 0 0,0 17,3H7A2,2 0 0,0 5,5V15A2,2 0 0,0 7,17H11V19H10A1,1 0 0,0 9,20H2V22H9A1,1 0 0,0 10,23H14A1,1 0 0,0 15,22H22V20H15M7,15V5H17V15H7M8,10.37L9.24,9.13L10.93,10.83L14.76,7L16,8.5L10.93,13.57L8,10.37Z"
     id="path2"
     style="fill:#009600;fill-opacity:1" />
</svg>
